<?xml version="1.0" encoding="UTF-8"?><svg id="uuid-97ded3f9-d479-4bb8-976f-7b01a38886c5" xmlns="http://www.w3.org/2000/svg" viewBox="0 0 40 40"><defs><style>.uuid-970297de-6500-47dd-b6b5-5892d5f8b03d{fill:#fff;}</style></defs><path class="uuid-970297de-6500-47dd-b6b5-5892d5f8b03d" d="m21.53,27.14c-.75.75-3.24-.47-5.89-2.8l-.27-.27c-.8-1.11-.88-2.46-.13-3.22-.88.88-4.09-.91-7.17-4,3.08,3.08,4.87,6.29,4,7.17.76-.76,2.11-.68,3.22.12l.27.27c2.32,2.65,3.55,5.13,2.8,5.89.88-.88,2.54-.63,3.71.54-1.18-1.18-1.42-2.84-.54-3.71Z"/><path class="uuid-970297de-6500-47dd-b6b5-5892d5f8b03d" d="m31.87,23.57c-.76.76-3.29-.5-5.97-2.87l-2.19-2.15c-.93-1.14-1.07-2.61-.27-3.41-.88.88-4.09-.91-7.17-4,3.08,3.08,4.87,6.29,4,7.17.8-.8,2.26-.66,3.41.27l2.15,2.19c2.37,2.68,3.63,5.21,2.87,5.97.88-.88,2.54-.63,3.71.54-1.18-1.18-1.42-2.84-.54-3.71Z"/><path class="uuid-970297de-6500-47dd-b6b5-5892d5f8b03d" d="m22.78,21.16c-.74.74-3.16-.43-5.75-2.68l-2.11-2.07c-.84-1.12-.94-2.51-.16-3.28-.88.88-4.09-.91-7.17-4,3.08,3.08,4.87,6.29,4,7.17.77-.77,2.15-.67,3.28.16l2.07,2.11c2.25,2.59,3.42,5.01,2.68,5.75.88-.88,2.54-.63,3.71.54-1.18-1.18-1.42-2.84-.54-3.71Z"/></svg>