<?xml version="1.0" encoding="UTF-8"?><svg id="uuid-e5800668-b388-48cb-a2fb-83a2a613ab5c" xmlns="http://www.w3.org/2000/svg" viewBox="0 0 40 40"><defs><style>.uuid-a6369aaf-00f7-4a2d-8879-74426dc9d59b{fill:#fff;}</style></defs><path class="uuid-a6369aaf-00f7-4a2d-8879-74426dc9d59b" d="m20,15.86c0,2.34-1.9,4.24-4.24,4.24,2.34,0,4.24,1.9,4.24,4.24,0-2.34,1.9-4.24,4.24-4.24-2.34,0-4.24-1.9-4.24-4.24Z"/><path class="uuid-a6369aaf-00f7-4a2d-8879-74426dc9d59b" d="m12.84,11.02c0,1.04-.84,1.88-1.88,1.88,1.04,0,1.88.84,1.88,1.88,0-1.04.84-1.88,1.88-1.88-1.04,0-1.88-.84-1.88-1.88Z"/><path class="uuid-a6369aaf-00f7-4a2d-8879-74426dc9d59b" d="m25.2,27.15c1.04,0,1.88.84,1.88,1.88,0-1.04.84-1.88,1.88-1.88-1.04,0-1.88-.84-1.88-1.88,0,1.04-.84,1.88-1.88,1.88Z"/><path class="uuid-a6369aaf-00f7-4a2d-8879-74426dc9d59b" d="m29.01,12.86c-1.04,0-1.88-.84-1.88-1.88,0,1.04-.84,1.88-1.88,1.88,1.04,0,1.88.84,1.88,1.88,0-1.04.84-1.88,1.88-1.88Z"/><path class="uuid-a6369aaf-00f7-4a2d-8879-74426dc9d59b" d="m10.99,27.11c1.04,0,1.88.84,1.88,1.88,0-1.04.84-1.88,1.88-1.88-1.04,0-1.88-.84-1.88-1.88,0,1.04-.84,1.88-1.88,1.88Z"/><path class="uuid-a6369aaf-00f7-4a2d-8879-74426dc9d59b" d="m16.49,10.76c-.1.1-.19.2-.27.3,1.66-1.35,4.21-1.16,5.88.51,1.67,1.67,1.86,4.22.51,5.88.11-.09.21-.18.3-.27,1.64-1.64,1.53-4.41-.24-6.18-1.77-1.77-4.54-1.88-6.18-.24Z"/><path class="uuid-a6369aaf-00f7-4a2d-8879-74426dc9d59b" d="m23.54,29.24c.1-.1.19-.2.27-.3-1.66,1.35-4.21,1.16-5.88-.51-1.67-1.67-1.86-4.22-.51-5.88-.11.09-.21.18-.3.27-1.64,1.64-1.53,4.41.24,6.18,1.77,1.77,4.54,1.88,6.18.24Z"/><path class="uuid-a6369aaf-00f7-4a2d-8879-74426dc9d59b" d="m29.24,16.46c-.1-.1-.2-.19-.3-.27,1.35,1.66,1.16,4.21-.51,5.88-1.67,1.67-4.22,1.86-5.88.51.09.11.18.21.27.3,1.64,1.64,4.41,1.53,6.18-.24,1.77-1.77,1.88-4.54.24-6.18Z"/><path class="uuid-a6369aaf-00f7-4a2d-8879-74426dc9d59b" d="m10.76,23.51c.1.1.2.19.3.27-1.35-1.66-1.16-4.21.51-5.88,1.67-1.67,4.22-1.86,5.88-.51-.09-.11-.18-.21-.27-.3-1.64-1.64-4.41-1.53-6.18.24-1.77,1.77-1.88,4.54-.24,6.18Z"/></svg>