<?xml version="1.0" encoding="UTF-8"?><svg id="uuid-da5bc2e4-f7d4-4a37-86b5-c8bd9dcd8d23" xmlns="http://www.w3.org/2000/svg" viewBox="0 0 40 40"><defs><style>.uuid-b5decffe-254c-4990-a263-eeccb80a3030{fill:#fff;}</style></defs><g><path class="uuid-b5decffe-254c-4990-a263-eeccb80a3030" d="m20,20c.06-5.77.74-10.46,1.41-10.36-.94-.12-1.88-.12-2.82,0,.67-.11,1.34,4.59,1.41,10.36Z"/><path class="uuid-b5decffe-254c-4990-a263-eeccb80a3030" d="m20,20c.06,5.77.74,10.47,1.41,10.36-.94.12-1.88.12-2.82,0,.67.11,1.34-4.59,1.41-10.36Z"/></g><g><path class="uuid-b5decffe-254c-4990-a263-eeccb80a3030" d="m20,20c-3.11-5.09-3.6-9.03-2.73-9.69-.94.8-1.98,1.65-3.07,2.51.77-.84,2.66,2.01,5.8,7.19Z"/><path class="uuid-b5decffe-254c-4990-a263-eeccb80a3030" d="m20,20c3.14,5.18,5.03,8.03,5.8,7.19-1.09.85-2.13,1.7-3.07,2.51.87-.66.38-4.6-2.73-9.69Z"/></g><g><path class="uuid-b5decffe-254c-4990-a263-eeccb80a3030" d="m20,20c-5.18-3.14-8.03-5.03-7.19-5.8-.85,1.09-1.7,2.13-2.51,3.07.66-.87,4.6-.39,9.69,2.73Z"/><path class="uuid-b5decffe-254c-4990-a263-eeccb80a3030" d="m20,20c5.09,3.11,9.03,3.6,9.69,2.73-.8.94-1.65,1.98-2.51,3.07.84-.77-2.01-2.66-7.19-5.8Z"/></g><g><path class="uuid-b5decffe-254c-4990-a263-eeccb80a3030" d="m20,20c-5.77-.06-10.47-.74-10.36-1.41-.12.94-.12,1.88,0,2.82-.11-.67,4.59-1.34,10.36-1.41Z"/><path class="uuid-b5decffe-254c-4990-a263-eeccb80a3030" d="m20,20c5.77-.06,10.46-.74,10.36-1.41.12.94.12,1.88,0,2.82.11-.67-4.59-1.34-10.36-1.41Z"/></g><g><path class="uuid-b5decffe-254c-4990-a263-eeccb80a3030" d="m20,20c-5.09,3.11-9.03,3.6-9.69,2.73.8.94,1.65,1.98,2.51,3.07-.84-.77,2.01-2.66,7.19-5.8Z"/><path class="uuid-b5decffe-254c-4990-a263-eeccb80a3030" d="m20,20c5.18-3.14,8.03-5.03,7.19-5.8.85,1.09,1.7,2.13,2.51,3.07-.66-.87-4.6-.39-9.69,2.73Z"/></g><g><path class="uuid-b5decffe-254c-4990-a263-eeccb80a3030" d="m20,20c-3.14,5.18-5.03,8.03-5.8,7.19,1.09.85,2.13,1.7,3.07,2.51-.87-.66-.38-4.6,2.73-9.69Z"/><path class="uuid-b5decffe-254c-4990-a263-eeccb80a3030" d="m20,20c3.11-5.09,3.6-9.03,2.73-9.69.94.8,1.98,1.65,3.07,2.51-.77-.84-2.66,2.01-5.8,7.19Z"/></g></svg>