<?xml version="1.0" encoding="UTF-8"?><svg id="uuid-1cf614fa-2829-40a0-91d8-6ef3743331b4" xmlns="http://www.w3.org/2000/svg" viewBox="0 0 40 40"><defs><style>.uuid-e886bc47-f11b-48a7-806c-306eb113b0ce{fill:#fff;}</style></defs><path class="uuid-e886bc47-f11b-48a7-806c-306eb113b0ce" d="m20,16.27c0,2.06-1.67,3.73-3.73,3.73,2.06,0,3.73,1.67,3.73,3.73,0-2.06,1.67-3.73,3.73-3.73-2.06,0-3.73-1.67-3.73-3.73Z"/><path class="uuid-e886bc47-f11b-48a7-806c-306eb113b0ce" d="m29.26,10.74c-1.37-1.37-5.18.12-9.26,3.38-4.08-3.26-7.89-4.75-9.26-3.38-1.37,1.37.12,5.18,3.38,9.26-3.26,4.08-4.75,7.89-3.38,9.26,1.37,1.37,5.18-.12,9.26-3.38,4.08,3.26,7.89,4.75,9.26,3.38,1.37-1.37-.12-5.18-3.38-9.26,3.26-4.08,4.75-7.89,3.38-9.26Zm-1.28,1.28c1.27,1.27.27,4.43-2.23,7.81-.79-.97-1.67-1.96-2.65-2.93-.97-.97-1.96-1.86-2.93-2.65,3.38-2.5,6.55-3.5,7.81-2.23Zm-2.35,7.98c-.75,1-1.63,2.01-2.62,3s-2.01,1.87-3,2.62c-1-.75-2.01-1.63-3-2.62-.99-.99-1.87-2.01-2.62-3,.75-1,1.63-2.01,2.62-3,.99-.99,2.01-1.87,3-2.62,1,.75,2.01,1.63,3,2.62s1.87,2.01,2.62,3Zm-13.6-7.98c1.27-1.27,4.43-.27,7.81,2.23-.97.79-1.96,1.67-2.93,2.65s-1.86,1.96-2.65,2.93c-2.5-3.38-3.5-6.55-2.23-7.81Zm0,15.96c-1.27-1.27-.27-4.43,2.23-7.81.79.97,1.67,1.96,2.65,2.93.97.97,1.96,1.86,2.93,2.65-3.38,2.5-6.55,3.5-7.81,2.23Zm15.96,0c-1.27,1.27-4.43.27-7.81-2.23.97-.79,1.96-1.67,2.93-2.65.97-.97,1.86-1.96,2.65-2.93,2.5,3.38,3.5,6.55,2.23,7.81Z"/></svg>