<?xml version="1.0" encoding="UTF-8"?><svg id="uuid-18555678-bb05-4a23-aaf8-493a576882e8" xmlns="http://www.w3.org/2000/svg" viewBox="0 0 40 40"><defs><style>.uuid-57eb7628-6471-4d42-b9a4-84c274a5965c{fill:#fff;}</style></defs><path class="uuid-57eb7628-6471-4d42-b9a4-84c274a5965c" d="m25.07,13.56c1.37,0,2.49,1.12,2.49,2.5,0-1.38,1.11-2.5,2.49-2.5-1.37,0-2.49-1.12-2.49-2.5,0,1.38-1.11,2.5-2.49,2.5Z"/><path class="uuid-57eb7628-6471-4d42-b9a4-84c274a5965c" d="m9.96,26.47c1.37,0,2.49,1.12,2.49,2.5,0-1.38,1.11-2.5,2.49-2.5-1.37,0-2.49-1.12-2.49-2.5,0,1.38-1.11,2.5-2.49,2.5Z"/><path class="uuid-57eb7628-6471-4d42-b9a4-84c274a5965c" d="m10.15,16.63v-.14s0,.09,0,.14Z"/><path class="uuid-57eb7628-6471-4d42-b9a4-84c274a5965c" d="m27.55,14.86v.14s0-.09,0-.14Z"/><g><path class="uuid-57eb7628-6471-4d42-b9a4-84c274a5965c" d="m10.15,16.49c0,.08,0-.08,0,0h0Z"/><path class="uuid-57eb7628-6471-4d42-b9a4-84c274a5965c" d="m12.52,13.91c.65,0,1.24.26,1.66.69l4.67,4.67h0s0,0,0,0c0-1.3,1.05-2.35,2.35-2.35.6,0,1.16.23,1.57.6l.09.09,4.69,4.69v-6.25c0,1.3-1.08,2.58-2.37,2.58-.65,0-1.24-.26-1.66-.69l-4.67-4.67h0s0,0,0,0c0,1.3-1.05,2.35-2.35,2.35-.6,0-1.16-.23-1.57-.6l-.09-.09-4.69-4.69v6.25c0-1.3,1.08-2.58,2.37-2.58Z"/><path class="uuid-57eb7628-6471-4d42-b9a4-84c274a5965c" d="m27.55,16.05c0-.08,0,.08,0,0h0Z"/><path class="uuid-57eb7628-6471-4d42-b9a4-84c274a5965c" d="m27.47,26.09c-.65,0-1.24-.26-1.66-.69l-4.67-4.67h0s0,0,0,0c0,1.3-1.05,2.35-2.35,2.35-.6,0-1.16-.23-1.57-.6l-.09-.09-4.69-4.69v6.25c0-1.3,1.08-2.58,2.37-2.58.65,0,1.24.26,1.66.69l4.67,4.67h0s0,0,0,0c0-1.3,1.05-2.35,2.35-2.35.6,0,1.16.23,1.57.6l.09.09,4.69,4.69v-6.25c0,1.3-1.08,2.58-2.37,2.58Z"/><path class="uuid-57eb7628-6471-4d42-b9a4-84c274a5965c" d="m29.84,23.51c0-.08,0,.08,0,0h0Z"/><path class="uuid-57eb7628-6471-4d42-b9a4-84c274a5965c" d="m12.44,23.95c0,.08,0-.08,0,0h0Z"/></g><path class="uuid-57eb7628-6471-4d42-b9a4-84c274a5965c" d="m27.55,15.92v.14s0-.09,0-.14Z"/></svg>