<?xml version="1.0" encoding="UTF-8"?><svg id="uuid-4c7a4e87-f0f0-4ad6-910e-ec7782e211e2" xmlns="http://www.w3.org/2000/svg" viewBox="0 0 40 40"><defs><style>.uuid-e86ca065-051f-443d-a1a4-e2ed8cae5b19{fill:#fff;}</style></defs><path class="uuid-e86ca065-051f-443d-a1a4-e2ed8cae5b19" d="m12.2,17.42h0c0,2.85-2.33,5.17-5.2,5.17h5.2c0-2.86,2.34-5.17,5.21-5.17h-5.21Z"/><path class="uuid-e86ca065-051f-443d-a1a4-e2ed8cae5b19" d="m22.59,12.22h-10.38c2.87,0,5.2,2.34,5.2,5.2,0-2.87,2.32-5.2,5.18-5.2Z"/><path class="uuid-e86ca065-051f-443d-a1a4-e2ed8cae5b19" d="m21.06,22.6c-2.02,0-3.66-1.63-3.66-3.65,0,2.01-1.64,3.65-3.66,3.65,2.02,0,3.66,1.63,3.66,3.65,0-2.01,1.64-3.65,3.66-3.65Z"/><path class="uuid-e86ca065-051f-443d-a1a4-e2ed8cae5b19" d="m27.8,17.42c0,2.86-2.34,5.17-5.21,5.17h5.21c0-2.85,2.33-5.17,5.2-5.17h-5.2Z"/><path class="uuid-e86ca065-051f-443d-a1a4-e2ed8cae5b19" d="m17.41,27.78h10.38c-2.87,0-5.2-2.34-5.2-5.2,0,2.87-2.32,5.2-5.18,5.2Z"/><path class="uuid-e86ca065-051f-443d-a1a4-e2ed8cae5b19" d="m18.94,17.4c2.02,0,3.66,1.63,3.66,3.65,0-2.01,1.64-3.65,3.66-3.65-2.02,0-3.66-1.63-3.66-3.65,0,2.01-1.64,3.65-3.66,3.65Z"/></svg>