<?xml version="1.0" encoding="UTF-8"?><svg id="uuid-5e10c8e5-90ab-475f-9e0b-0ddf7e1be73d" xmlns="http://www.w3.org/2000/svg" viewBox="0 0 40 40"><defs><style>.uuid-cdd09e6d-1dea-49a9-89ae-72d6e3788ca8{fill:#fff;}</style></defs><g><path class="uuid-cdd09e6d-1dea-49a9-89ae-72d6e3788ca8" d="m20,18.47c-4.67,0-8.46-.69-8.46-1.54v3.08c0-.85,3.79-1.54,8.46-1.54Z"/><path class="uuid-cdd09e6d-1dea-49a9-89ae-72d6e3788ca8" d="m20,18.47c4.67,0,8.46-.69,8.46-1.54v3.08c0-.85-3.79-1.54-8.46-1.54Z"/><path class="uuid-cdd09e6d-1dea-49a9-89ae-72d6e3788ca8" d="m20,21.54c-4.67,0-8.46-.69-8.46-1.54v3.08c0-.85,3.79-1.54,8.46-1.54Z"/><path class="uuid-cdd09e6d-1dea-49a9-89ae-72d6e3788ca8" d="m20,21.54c4.67,0,8.46-.69,8.46-1.54v3.08c0-.85-3.79-1.54-8.46-1.54Z"/></g><path class="uuid-cdd09e6d-1dea-49a9-89ae-72d6e3788ca8" d="m23.61,12.47c-1.99,0-3.61-1.62-3.61-3.61,0,1.99-1.62,3.61-3.61,3.61,1.99,0,3.61,5.54,3.61,7.53,0-1.99,1.62-7.53,3.61-7.53Z"/><path class="uuid-cdd09e6d-1dea-49a9-89ae-72d6e3788ca8" d="m16.39,27.53c1.99,0,3.61,1.62,3.61,3.61,0-1.99,1.62-3.61,3.61-3.61-1.99,0-3.61-5.54-3.61-7.53,0,1.99-1.62,7.53-3.61,7.53Z"/></svg>