<?xml version="1.0" encoding="utf-8"?>
<!-- Generator: Adobe Illustrator 27.2.0, SVG Export Plug-In . SVG Version: 6.00 Build 0)  -->
<svg version="1.1" id="圖層_1" xmlns="http://www.w3.org/2000/svg" xmlns:xlink="http://www.w3.org/1999/xlink" x="0px" y="0px"
	 viewBox="0 0 90 310" style="enable-background:new 0 0 90 310;" xml:space="preserve">
<style type="text/css">
	.st0{fill:url(#SVGID_1_);}
	.st1{fill:url(#SVGID_00000079457712579253204630000009674470376982402701_);}
	.st2{fill:url(#SVGID_00000057131615957667377850000007942979862714441624_);}
	.st3{fill:url(#SVGID_00000129191485846207104370000008239313862946098332_);}
	.st4{fill:url(#SVGID_00000111179628359134551570000014837353737526007171_);}
	.st5{fill:url(#SVGID_00000150100444558094574440000015837229211771779978_);}
	.st6{fill:url(#SVGID_00000160175705191045435650000003989420074250833562_);}
	.st7{fill:url(#SVGID_00000070820621145984866040000013355381792611580587_);}
	.st8{fill:url(#SVGID_00000158725173010762235880000010718433880272131976_);}
	.st9{fill:url(#SVGID_00000080178238915471743310000015826642189081957779_);}
	.st10{fill:url(#SVGID_00000137122993827387985910000016437796723621957533_);}
</style>
<g>
	<g>
		<g>
			<linearGradient id="SVGID_1_" gradientUnits="userSpaceOnUse" x1="33.0879" y1="143.0635" x2="39.9995" y2="136.1519">
				<stop  offset="0" style="stop-color:#FFFFFF;stop-opacity:0"/>
				<stop  offset="1" style="stop-color:#FFFFFF"/>
			</linearGradient>
			<path class="st0" d="M43.9,139.1c-3.8,0-6.8-3.1-6.8-6.8c0,3.8-3.1,6.8-6.8,6.8c3.8,0,6.8,3.1,6.8,6.8
				C37,142.2,40.1,139.1,43.9,139.1z"/>
			
				<linearGradient id="SVGID_00000176012580973579799240000006116874809872121237_" gradientUnits="userSpaceOnUse" x1="0.6414" y1="163.3576" x2="48.6769" y2="128.0056">
				<stop  offset="0" style="stop-color:#FFFFFF;stop-opacity:0"/>
				<stop  offset="1" style="stop-color:#FFFFFF"/>
			</linearGradient>
			<path style="fill:url(#SVGID_00000176012580973579799240000006116874809872121237_);" d="M73.4,127.5h-55h0
				c0.8,0,1.5,0.7,1.5,1.5c0,0,0,0,0,0v0h49.8c-7.2,3.3-13.2,8.5-19,13.6c-8.2,7.2-16.2,14.1-26.9,14.3c-2.9,0-5.9-0.4-9.2-1.5
				c8.1,5.3,15.1,6.5,21.8,3.6c6.2-2.7,11.5-8.4,17.1-14.5c6.8-7.4,13.7-14.9,23.1-17.9C75.5,126.8,74.4,127.2,73.4,127.5z"/>
			<g>
				
					<linearGradient id="SVGID_00000013912712126122188100000001481943357471905185_" gradientUnits="userSpaceOnUse" x1="12.3166" y1="148.1629" x2="66.559" y2="108.2232">
					<stop  offset="0" style="stop-color:#FFFFFF;stop-opacity:0"/>
					<stop  offset="1" style="stop-color:#FFFFFF"/>
				</linearGradient>
				<path style="fill:url(#SVGID_00000013912712126122188100000001481943357471905185_);" d="M63.7,107.3L63.7,107.3H48.1v1.5v10.7
					v1.5v5.5c0,0,0,0,0,0c0-3,2.4-5.4,5.4-5.5h0h10.1h4.6h0.8v-13.6v0v-5.5c0,0,0,0,0,0C69.1,104.8,66.7,107.3,63.7,107.3z
					 M63.6,116.7c0,1.5-1.2,2.8-2.8,2.8c0,0,0,0,0.1,0h-7.4v-7.9c0-1.5,1.2-2.7,2.7-2.8h7.4V116.7z"/>
				
					<linearGradient id="SVGID_00000038404178885492610020000011916276803411918211_" gradientUnits="userSpaceOnUse" x1="-4.8984" y1="124.7829" x2="49.3438" y2="84.8433">
					<stop  offset="0" style="stop-color:#FFFFFF;stop-opacity:0"/>
					<stop  offset="1" style="stop-color:#FFFFFF"/>
				</linearGradient>
				<path style="fill:url(#SVGID_00000038404178885492610020000011916276803411918211_);" d="M71,86.1h-9.9V70.9c0,0,0,0,0,0
					c0,3.5-2.8,6.3-6.3,6.3c0,0,0.1,0,0.1,0H30.6c0,0,0,0,0,0c0.8,0,1.5,0.7,1.5,1.5c0,0,0,0,0,0v0h22.7v4.7c0,1.5-1.2,2.7-2.7,2.7
					c0,0,0,0,0,0H23.5v0H22c0,0,0,0,0,0c0.8,0,1.5,0.7,1.5,1.5c0,0,0,0,0,0v0h31.3v5.3c0,1.5-1.2,2.7-2.7,2.7c0,0,0,0,0,0H32h-1.5
					c0,0,0,0,0,0c0.8,0,1.5,0.7,1.5,1.5c0,0,0,0,0,0v0h22.4c-4.2,2.1-7.9,5-11.4,8H25.2h-1.5c0,0,0,0,0,0c0.8,0,1.5,0.7,1.5,1.5
					c0,0,0,0,0,0v0h16.1c-0.4,0.4-0.9,0.8-1.3,1.2c-6.9,6-13.5,11.8-22.5,11.9c-2.4,0-4.9-0.4-7.7-1.2c6.8,4.5,12.6,5.4,18.3,3
					c5.2-2.2,9.6-7,14.3-12.1c3.9-4.2,7.8-8.5,12.4-11.6v4.1c0,0,0,0,0,0c0-3.5,2.8-6.3,6.3-6.3v-5.3c0-1.5,1.2-2.7,2.7-2.7
					c0,0,0,0-0.1,0h5.8v0c0,0,0,0,0,0C69.5,86.7,70.2,86.1,71,86.1C71,86.1,71,86.1,71,86.1z"/>
			</g>
			<g>
				
					<linearGradient id="SVGID_00000176038545419359464410000018039427101881781660_" gradientUnits="userSpaceOnUse" x1="-7.1069" y1="252.0664" x2="61.1845" y2="209.1698">
					<stop  offset="0" style="stop-color:#FFFFFF;stop-opacity:0"/>
					<stop  offset="1" style="stop-color:#FFFFFF"/>
				</linearGradient>
				<path style="fill:url(#SVGID_00000176038545419359464410000018039427101881781660_);" d="M66.1,242.5H48.6v-10.7
					c0-1.7,1.4-3,3-3c0,0,0,0-0.1,0l14.5,0c0-0.8,0.7-1.5,1.5-1.5c0,0,0,0,0,0h-1.4H48.6v-15.7c1.7-1.3,3.5-2.5,5.4-3.5h2.7v5.9
					c0,0,0,0,0,0c0-3.3,2.6-5.9,5.9-5.9c0,0-0.1,0-0.1,0h0.1v-22.8v0v-5.9c0,0,0,0,0,0c0,3.1-2.5,5.7-5.6,5.9h-0.3H34.9v-5.9
					c0,0,0,0,0,0c0,3.2-2.6,5.9-5.9,5.9c0,0,0.1,0,0.1,0h-0.1v22.8v0v5.9c0,0,0,0,0,0c0-3.2,2.5-5.8,5.7-5.9h0.2h18.1
					c-6.5,2.7-11.6,7.5-16.7,11.9c-6.7,5.9-13.2,11.5-22,11.7c-2.3,0-4.8-0.7-7.5-1.6c6.6,4.4,12.3,5.3,17.9,3
					c2.3-1,4.5-2.5,6.6-4.4h11.4v10.7c0,1.7-1.4,3-3,3c0,0,0,0,0.1,0H24v0h-1.5c0,0,0,0,0,0c0.8,0,1.5,0.7,1.5,1.5c0,0,0,0,0,0v0
					h18.7v17.1c-5.2,3.7-10.7,6.4-17.2,6.5c-2.8,0-5.8-0.4-9.1-1.4c8,5.3,14.9,6.4,21.5,3.6c6.2-2.6,11.3-8.3,16.8-14.3
					c6.7-7.3,13.5-14.7,22.8-17.7C73.4,238.8,69.6,240.5,66.1,242.5z M34.9,189.6c0-1.6,1.3-2.8,2.8-2.8c0,0,0,0-0.1,0h19v6.4
					c0,1.6-1.3,2.8-2.8,2.8c0,0,0,0,0.1,0h-19V189.6z M34.9,206.6v-6.3c0-1.6,1.3-2.8,2.8-2.8c0,0,0,0-0.1,0h19v6.3
					c0,1.6-1.3,2.8-2.8,2.8c0,0,0,0,0.1,0H34.9z M42.7,227.3h-9.8c1.9-1.8,3.8-3.9,5.7-6c1.3-1.4,2.7-2.9,4-4.3V227.3z M51.9,253.5
					c-1.1,1-2.2,1.9-3.3,2.9v-9.3c0-1.7,1.4-3,3-3c0,0,0,0-0.1,0l12.2,0C59.6,246.8,55.7,250.2,51.9,253.5z"/>
			</g>
		</g>
		<g>
			
				<linearGradient id="SVGID_00000108290959340076581330000000276179702159434373_" gradientUnits="userSpaceOnUse" x1="3.4517" y1="304.5786" x2="12.2513" y2="295.779">
				<stop  offset="0" style="stop-color:#FFFFFF;stop-opacity:0.2"/>
				<stop  offset="1" style="stop-color:#FFFFFF"/>
			</linearGradient>
			<path style="fill:url(#SVGID_00000108290959340076581330000000276179702159434373_);" d="M10.9,296.9v-1.1h1.4v3.2h-1.4
				c-0.4-0.6-0.9-1.1-1.5-1.5C8.7,297.1,8,297,7.3,297c-0.7,0-1.4,0.2-1.9,0.5c-0.6,0.3-1,0.8-1.3,1.4c-0.3,0.6-0.5,1.2-0.5,1.9
				c0,0.7,0.2,1.3,0.5,1.9c0.3,0.6,0.8,1,1.4,1.4c0.6,0.3,1.2,0.5,1.9,0.5c0.9,0,1.7-0.2,2.3-0.7c0.7-0.5,1.2-1.2,1.5-2.1l1.4,0.7
				c-0.4,1.1-1.1,2-2,2.6c-1,0.6-2.1,0.9-3.4,0.9c-1.1,0-2-0.2-2.8-0.7c-0.8-0.5-1.5-1.1-1.9-1.8c-0.5-0.8-0.7-1.6-0.7-2.5
				c0-1,0.2-1.9,0.7-2.7c0.5-0.8,1.1-1.4,1.9-1.8c0.8-0.4,1.8-0.6,2.8-0.6c0.7,0,1.4,0.1,2,0.3C9.8,296.2,10.4,296.5,10.9,296.9z"/>
			
				<linearGradient id="SVGID_00000052795788887598654650000015397664833231561101_" gradientUnits="userSpaceOnUse" x1="22.3751" y1="305.6293" x2="30.8616" y2="297.1429">
				<stop  offset="0" style="stop-color:#FFFFFF;stop-opacity:0.2"/>
				<stop  offset="1" style="stop-color:#FFFFFF"/>
			</linearGradient>
			<path style="fill:url(#SVGID_00000052795788887598654650000015397664833231561101_);" d="M31,298.4c0,0.6-0.2,1.2-0.6,1.6
				c-0.4,0.4-1,0.7-1.7,0.9l1.9,3.6H32v1.2h-2.5l-2.4-4.6h-1.5v3.4H27v1.2h-4.6v-1.2h1.5V297h-1.5v-1.2H27c1.4,0,2.4,0.2,3.1,0.6
				C30.7,296.8,31,297.5,31,298.4z M29.3,298.4c0-0.5-0.2-0.8-0.5-1c-0.3-0.2-0.8-0.3-1.5-0.3h-1.7v2.8h1.6c0.7,0,1.2-0.1,1.6-0.3
				C29.1,299.3,29.3,298.9,29.3,298.4z"/>
			
				<linearGradient id="SVGID_00000075862630849594215850000012107267728406663560_" gradientUnits="userSpaceOnUse" x1="43.2738" y1="304.6411" x2="51.0519" y2="296.8629">
				<stop  offset="0" style="stop-color:#FFFFFF;stop-opacity:0.2"/>
				<stop  offset="1" style="stop-color:#FFFFFF"/>
			</linearGradient>
			<path style="fill:url(#SVGID_00000075862630849594215850000012107267728406663560_);" d="M52.9,300.7c0,1-0.2,1.9-0.7,2.7
				c-0.5,0.8-1.2,1.4-2,1.8c-0.9,0.4-1.9,0.6-3,0.6c-1.1,0-2.1-0.2-2.9-0.7c-0.9-0.4-1.5-1.1-2-1.8c-0.5-0.8-0.7-1.7-0.7-2.7
				c0-1,0.2-1.8,0.7-2.6c0.5-0.8,1.2-1.4,2-1.8c0.9-0.4,1.8-0.6,2.9-0.6c1.1,0,2.1,0.2,3,0.7c0.9,0.4,1.5,1.1,2,1.8
				C52.6,298.9,52.9,299.8,52.9,300.7z M47.2,304.6c0.8,0,1.4-0.2,2-0.5c0.6-0.4,1.1-0.8,1.4-1.4c0.3-0.6,0.5-1.2,0.5-1.9
				c0-0.7-0.2-1.3-0.5-1.9c-0.3-0.6-0.8-1-1.4-1.4c-0.6-0.3-1.3-0.5-2-0.5c-0.7,0-1.4,0.2-2,0.5c-0.6,0.3-1,0.8-1.3,1.4
				c-0.3,0.6-0.5,1.2-0.5,1.9c0,0.7,0.2,1.4,0.5,2c0.3,0.6,0.8,1,1.4,1.4C45.7,304.4,46.4,304.6,47.2,304.6z"/>
			
				<linearGradient id="SVGID_00000047746444086445650440000004647440204481470134_" gradientUnits="userSpaceOnUse" x1="62.5069" y1="305.0676" x2="70.9763" y2="296.5983">
				<stop  offset="0" style="stop-color:#FFFFFF;stop-opacity:0.2"/>
				<stop  offset="1" style="stop-color:#FFFFFF"/>
			</linearGradient>
			<path style="fill:url(#SVGID_00000047746444086445650440000004647440204481470134_);" d="M68.8,296.4v-0.7h1.3v3h-1.3v-0.7
				c-0.6-0.8-1.3-1.2-2.3-1.2c-0.6,0-1.1,0.1-1.4,0.3c-0.3,0.2-0.5,0.5-0.5,0.9c0,0.4,0.2,0.7,0.5,0.9c0.3,0.2,0.8,0.4,1.4,0.5
				l1.3,0.3c0.8,0.2,1.5,0.5,1.9,0.8c0.4,0.3,0.7,0.7,0.9,1c0.1,0.4,0.2,0.8,0.2,1.2c0,0.9-0.3,1.6-0.9,2.1
				c-0.6,0.5-1.5,0.8-2.5,0.8c-1,0-1.9-0.3-2.7-1v0.8h-1.4v-3.6h1.4v0.9c0.7,1.1,1.5,1.6,2.6,1.6c0.6,0,1.1-0.1,1.4-0.4
				c0.3-0.3,0.5-0.7,0.5-1.2c0-0.7-0.6-1.2-1.7-1.5l-1.4-0.3c-1-0.3-1.7-0.6-2.2-1c-0.5-0.4-0.7-1-0.7-1.7c0-0.9,0.3-1.5,0.9-2
				c0.6-0.5,1.4-0.7,2.4-0.7C67.2,295.6,68,295.9,68.8,296.4z"/>
			
				<linearGradient id="SVGID_00000029030878711833089950000017122006815092067768_" gradientUnits="userSpaceOnUse" x1="80.0907" y1="305.0676" x2="88.56" y2="296.5983">
				<stop  offset="0" style="stop-color:#FFFFFF;stop-opacity:0.2"/>
				<stop  offset="1" style="stop-color:#FFFFFF"/>
			</linearGradient>
			<path style="fill:url(#SVGID_00000029030878711833089950000017122006815092067768_);" d="M86.4,296.4v-0.7h1.3v3h-1.3v-0.7
				c-0.6-0.8-1.3-1.2-2.3-1.2c-0.6,0-1.1,0.1-1.4,0.3c-0.3,0.2-0.5,0.5-0.5,0.9c0,0.4,0.2,0.7,0.5,0.9s0.8,0.4,1.4,0.5l1.3,0.3
				c0.8,0.2,1.5,0.5,1.9,0.8c0.4,0.3,0.7,0.7,0.9,1c0.1,0.4,0.2,0.8,0.2,1.2c0,0.9-0.3,1.6-0.9,2.1c-0.6,0.5-1.5,0.8-2.5,0.8
				c-1,0-1.9-0.3-2.7-1v0.8h-1.4v-3.6h1.4v0.9c0.7,1.1,1.5,1.6,2.6,1.6c0.6,0,1.1-0.1,1.4-0.4c0.3-0.3,0.5-0.7,0.5-1.2
				c0-0.7-0.6-1.2-1.7-1.5l-1.4-0.3c-1-0.3-1.7-0.6-2.2-1c-0.5-0.4-0.7-1-0.7-1.7c0-0.9,0.3-1.5,0.9-2c0.6-0.5,1.4-0.7,2.4-0.7
				C84.8,295.6,85.6,295.9,86.4,296.4z"/>
		</g>
	</g>
	
		<linearGradient id="SVGID_00000155107870930262712020000013457886061277811123_" gradientUnits="userSpaceOnUse" x1="33.8254" y1="824.1816" x2="51.1097" y2="841.4658" gradientTransform="matrix(1 0 0 -1 0 861.5252)">
		<stop  offset="0" style="stop-color:#DDA990;stop-opacity:0"/>
		<stop  offset="1" style="stop-color:#DDA990"/>
	</linearGradient>
	<path style="fill:url(#SVGID_00000155107870930262712020000013457886061277811123_);" d="M23,26.2c12.2,0,22,9.9,22,22
		c0-12.2,9.9-22,22-22c-12.2,0-22-9.9-22-22C45,16.3,35.1,26.2,23,26.2z"/>
</g>
</svg>
